<svg width="1300" height="1600" viewBox="0 0 1300 1600" fill="none" xmlns="http://www.w3.org/2000/svg">
<rect x="710" y="210" width="80" height="20" transform="rotate(90 710 210)" fill="#F2F1F0"/>
<path d="M740 260L660 260L660 240L740 240L740 260Z" fill="#F2F1F0"/>
<rect x="410" y="310" width="80" height="20" transform="rotate(90 410 310)" fill="#F2F1F0"/>
<path d="M440 360L360 360L360 340L440 340L440 360Z" fill="#F2F1F0"/>
<rect x="710" y="310" width="80" height="20" transform="rotate(90 710 310)" fill="#F2F1F0"/>
<path d="M740 360L660 360L660 340L740 340L740 360Z" fill="#F2F1F0"/>
<rect x="510" y="410" width="80" height="20" transform="rotate(90 510 410)" fill="#F2F1F0"/>
<path d="M540 460L460 460L460 440L540 440L540 460Z" fill="#F2F1F0"/>
<rect x="610" y="410" width="80" height="20" transform="rotate(90 610 410)" fill="#F2F1F0"/>
<path d="M640 460L560 460L560 440L640 440L640 460Z" fill="#F2F1F0"/>
<rect x="710" y="410" width="80" height="20" transform="rotate(90 710 410)" fill="#F2F1F0"/>
<path d="M740 460L660 460L660 440L740 440L740 460Z" fill="#F2F1F0"/>
<rect x="610" y="510" width="80" height="20" transform="rotate(90 610 510)" fill="#F2F1F0"/>
<path d="M640 560L560 560L560 540L640 540L640 560Z" fill="#F2F1F0"/>
<rect x="810" y="310" width="80" height="20" transform="rotate(90 810 310)" fill="#F2F1F0"/>
<path d="M840 360L760 360L760 340L840 340L840 360Z" fill="#F2F1F0"/>
<rect x="810" y="410" width="80" height="20" transform="rotate(90 810 410)" fill="#F2F1F0"/>
<path d="M840 460L760 460L760 440L840 440L840 460Z" fill="#F2F1F0"/>
<rect x="910" y="410" width="80" height="20" transform="rotate(90 910 410)" fill="#F2F1F0"/>
<path d="M940 460L860 460L860 440L940 440L940 460Z" fill="#F2F1F0"/>
<rect x="1110" y="410" width="80" height="20" transform="rotate(90 1110 410)" fill="#F2F1F0"/>
<path d="M1140 460L1060 460L1060 440L1140 440L1140 460Z" fill="#F2F1F0"/>
<rect x="810" y="510" width="80" height="20" transform="rotate(90 810 510)" fill="#F2F1F0"/>
<path d="M840 560L760 560L760 540L840 540L840 560Z" fill="#F2F1F0"/>
<rect x="910" y="510" width="80" height="20" transform="rotate(90 910 510)" fill="#F2F1F0"/>
<path d="M940 560L860 560L860 540L940 540L940 560Z" fill="#F2F1F0"/>
<rect x="1010" y="510" width="80" height="20" transform="rotate(90 1010 510)" fill="#F2F1F0"/>
<path d="M1040 560L960 560L960 540L1040 540L1040 560Z" fill="#F2F1F0"/>
<rect x="1110" y="510" width="80" height="20" transform="rotate(90 1110 510)" fill="#F2F1F0"/>
<path d="M1140 560L1060 560L1060 540L1140 540L1140 560Z" fill="#F2F1F0"/>
<rect x="510" y="610" width="80" height="20" transform="rotate(90 510 610)" fill="#F2F1F0"/>
<path d="M540 660L460 660L460 640L540 640L540 660Z" fill="#F2F1F0"/>
<rect x="610" y="610" width="80" height="20" transform="rotate(90 610 610)" fill="#F2F1F0"/>
<path d="M640 660L560 660L560 640L640 640L640 660Z" fill="#F2F1F0"/>
<rect x="710" y="610" width="80" height="20" transform="rotate(90 710 610)" fill="#F2F1F0"/>
<path d="M740 660L660 660L660 640L740 640L740 660Z" fill="#F2F1F0"/>
<rect x="510" y="710" width="80" height="20" transform="rotate(90 510 710)" fill="#F2F1F0"/>
<path d="M540 760L460 760L460 740L540 740L540 760Z" fill="#F2F1F0"/>
<rect x="610" y="710" width="80" height="20" transform="rotate(90 610 710)" fill="#F2F1F0"/>
<path d="M640 760L560 760L560 740L640 740L640 760Z" fill="#F2F1F0"/>
<rect x="710" y="710" width="80" height="20" transform="rotate(90 710 710)" fill="#F2F1F0"/>
<path d="M740 760L660 760L660 740L740 740L740 760Z" fill="#F2F1F0"/>
<rect x="710" y="810" width="80" height="20" transform="rotate(90 710 810)" fill="#F2F1F0"/>
<path d="M740 860L660 860L660 840L740 840L740 860Z" fill="#F2F1F0"/>
<rect x="910" y="610" width="80" height="20" transform="rotate(90 910 610)" fill="#F2F1F0"/>
<path d="M940 660L860 660L860 640L940 640L940 660Z" fill="#F2F1F0"/>
<rect x="1010" y="610" width="80" height="20" transform="rotate(90 1010 610)" fill="#F2F1F0"/>
<path d="M1040 660L960 660L960 640L1040 640L1040 660Z" fill="#F2F1F0"/>
<rect x="1110" y="610" width="80" height="20" transform="rotate(90 1110 610)" fill="#F2F1F0"/>
<path d="M1140 660L1060 660L1060 640L1140 640L1140 660Z" fill="#F2F1F0"/>
<rect x="810" y="710" width="80" height="20" transform="rotate(90 810 710)" fill="#F2F1F0"/>
<path d="M840 760L760 760L760 740L840 740L840 760Z" fill="#F2F1F0"/>
<rect x="910" y="710" width="80" height="20" transform="rotate(90 910 710)" fill="#F2F1F0"/>
<path d="M940 760L860 760L860 740L940 740L940 760Z" fill="#F2F1F0"/>
<rect x="1010" y="710" width="80" height="20" transform="rotate(90 1010 710)" fill="#F2F1F0"/>
<path d="M1040 760L960 760L960 740L1040 740L1040 760Z" fill="#F2F1F0"/>
<rect x="810" y="810" width="80" height="20" transform="rotate(90 810 810)" fill="#F2F1F0"/>
<path d="M840 860L760 860L760 840L840 840L840 860Z" fill="#F2F1F0"/>
<rect x="910" y="810" width="80" height="20" transform="rotate(90 910 810)" fill="#F2F1F0"/>
<path d="M940 860L860 860L860 840L940 840L940 860Z" fill="#F2F1F0"/>
<rect x="1010" y="810" width="80" height="20" transform="rotate(90 1010 810)" fill="#F2F1F0"/>
<path d="M1040 860L960 860L960 840L1040 840L1040 860Z" fill="#F2F1F0"/>
<rect x="410" y="710" width="80" height="20" transform="rotate(90 410 710)" fill="#F2F1F0"/>
<path d="M440 760L360 760L360 740L440 740L440 760Z" fill="#F2F1F0"/>
<rect x="410" y="810" width="80" height="20" transform="rotate(90 410 810)" fill="#F2F1F0"/>
<path d="M440 860L360 860L360 840L440 840L440 860Z" fill="#F2F1F0"/>
<rect x="210" y="910" width="80" height="20" transform="rotate(90 210 910)" fill="#F2F1F0"/>
<path d="M240 960L160 960L160 940L240 940L240 960Z" fill="#F2F1F0"/>
<rect x="310" y="910" width="80" height="20" transform="rotate(90 310 910)" fill="#F2F1F0"/>
<path d="M340 960L260 960L260 940L340 940L340 960Z" fill="#F2F1F0"/>
<rect x="410" y="910" width="80" height="20" transform="rotate(90 410 910)" fill="#F2F1F0"/>
<path d="M440 960L360 960L360 940L440 940L440 960Z" fill="#F2F1F0"/>
<rect x="310" y="1010" width="80" height="20" transform="rotate(90 310 1010)" fill="#F2F1F0"/>
<path d="M340 1060L260 1060L260 1040L340 1040L340 1060Z" fill="#F2F1F0"/>
<rect x="510" y="810" width="80" height="20" transform="rotate(90 510 810)" fill="#F2F1F0"/>
<path d="M540 860L460 860L460 840L540 840L540 860Z" fill="#F2F1F0"/>
<rect x="510" y="910" width="80" height="20" transform="rotate(90 510 910)" fill="#F2F1F0"/>
<path d="M540 960L460 960L460 940L540 940L540 960Z" fill="#F2F1F0"/>
<rect x="610" y="910" width="80" height="20" transform="rotate(90 610 910)" fill="#F2F1F0"/>
<path d="M640 960L560 960L560 940L640 940L640 960Z" fill="#F2F1F0"/>
<rect x="810" y="910" width="80" height="20" transform="rotate(90 810 910)" fill="#F2F1F0"/>
<path d="M840 960L760 960L760 940L840 940L840 960Z" fill="#F2F1F0"/>
<rect x="510" y="1010" width="80" height="20" transform="rotate(90 510 1010)" fill="#F2F1F0"/>
<path d="M540 1060L460 1060L460 1040L540 1040L540 1060Z" fill="#F2F1F0"/>
<rect x="610" y="1010" width="80" height="20" transform="rotate(90 610 1010)" fill="#F2F1F0"/>
<path d="M640 1060L560 1060L560 1040L640 1040L640 1060Z" fill="#F2F1F0"/>
<rect x="710" y="1010" width="80" height="20" transform="rotate(90 710 1010)" fill="#F2F1F0"/>
<path d="M740 1060L660 1060L660 1040L740 1040L740 1060Z" fill="#F2F1F0"/>
<rect x="810" y="1010" width="80" height="20" transform="rotate(90 810 1010)" fill="#F2F1F0"/>
<path d="M840 1060L760 1060L760 1040L840 1040L840 1060Z" fill="#F2F1F0"/>
<rect x="210" y="1110" width="80" height="20" transform="rotate(90 210 1110)" fill="#F2F1F0"/>
<path d="M240 1160L160 1160L160 1140L240 1140L240 1160Z" fill="#F2F1F0"/>
<rect x="310" y="1110" width="80" height="20" transform="rotate(90 310 1110)" fill="#F2F1F0"/>
<path d="M340 1160L260 1160L260 1140L340 1140L340 1160Z" fill="#F2F1F0"/>
<rect x="410" y="1110" width="80" height="20" transform="rotate(90 410 1110)" fill="#F2F1F0"/>
<path d="M440 1160L360 1160L360 1140L440 1140L440 1160Z" fill="#F2F1F0"/>
<rect x="210" y="1210" width="80" height="20" transform="rotate(90 210 1210)" fill="#F2F1F0"/>
<path d="M240 1260L160 1260L160 1240L240 1240L240 1260Z" fill="#F2F1F0"/>
<rect x="310" y="1210" width="80" height="20" transform="rotate(90 310 1210)" fill="#F2F1F0"/>
<path d="M340 1260L260 1260L260 1240L340 1240L340 1260Z" fill="#F2F1F0"/>
<rect x="410" y="1210" width="80" height="20" transform="rotate(90 410 1210)" fill="#F2F1F0"/>
<path d="M440 1260L360 1260L360 1240L440 1240L440 1260Z" fill="#F2F1F0"/>
<rect x="410" y="1310" width="80" height="20" transform="rotate(90 410 1310)" fill="#F2F1F0"/>
<path d="M440 1360L360 1360L360 1340L440 1340L440 1360Z" fill="#F2F1F0"/>
<rect x="610" y="1110" width="80" height="20" transform="rotate(90 610 1110)" fill="#F2F1F0"/>
<path d="M640 1160L560 1160L560 1140L640 1140L640 1160Z" fill="#F2F1F0"/>
<rect x="710" y="1110" width="80" height="20" transform="rotate(90 710 1110)" fill="#F2F1F0"/>
<path d="M740 1160L660 1160L660 1140L740 1140L740 1160Z" fill="#F2F1F0"/>
<rect x="810" y="1110" width="80" height="20" transform="rotate(90 810 1110)" fill="#F2F1F0"/>
<path d="M840 1160L760 1160L760 1140L840 1140L840 1160Z" fill="#F2F1F0"/>
<rect x="510" y="1210" width="80" height="20" transform="rotate(90 510 1210)" fill="#F2F1F0"/>
<path d="M540 1260L460 1260L460 1240L540 1240L540 1260Z" fill="#F2F1F0"/>
<rect x="610" y="1210" width="80" height="20" transform="rotate(90 610 1210)" fill="#F2F1F0"/>
<path d="M640 1260L560 1260L560 1240L640 1240L640 1260Z" fill="#F2F1F0"/>
<rect x="710" y="1210" width="80" height="20" transform="rotate(90 710 1210)" fill="#F2F1F0"/>
<path d="M740 1260L660 1260L660 1240L740 1240L740 1260Z" fill="#F2F1F0"/>
<rect x="510" y="1310" width="80" height="20" transform="rotate(90 510 1310)" fill="#F2F1F0"/>
<path d="M540 1360L460 1360L460 1340L540 1340L540 1360Z" fill="#F2F1F0"/>
<rect x="610" y="1310" width="80" height="20" transform="rotate(90 610 1310)" fill="#F2F1F0"/>
<path d="M640 1360L560 1360L560 1340L640 1340L640 1360Z" fill="#F2F1F0"/>
<rect x="710" y="1310" width="80" height="20" transform="rotate(90 710 1310)" fill="#F2F1F0"/>
<path d="M740 1360L660 1360L660 1340L740 1340L740 1360Z" fill="#F2F1F0"/>
</svg>
